<svg width="1512" height="576" viewBox="0 0 1512 576" fill="none" xmlns="http://www.w3.org/2000/svg">
<path d="M0 0L252 47.9608C504 96.3918 1008 191.608 1512 240.039C2016 288 2520 288 3024 268.839C3528 249.208 4032 211.592 4536 191.961C5040 172.8 5544 172.8 6048 172.8C6552 172.8 7056 172.8 7560 144C8064 115.2 8568 57.6 9072 115.2C9576 172.8 10080 345.6 10584 374.4C11088 403.2 11592 288 12096 288C12600 288 13104 403.2 13608 432C14112 460.8 14616 403.2 15120 393.561C15624 384.392 16128 422.008 16632 451.161C17136 479.608 17640 499.592 18144 432C18648 364.408 19152 211.592 19656 124.839C20160 38.7918 20664 18.8082 21168 47.9608C21672 76.4082 22176 153.992 22680 220.761C23184 288 23688 345.6 24192 355.239C24696 364.408 25200 326.792 25704 345.6C26208 364.408 26712 441.992 27216 479.961C27720 518.4 28224 518.4 28728 470.439C29232 422.008 29736 326.792 30240 316.8C30744 306.808 31248 384.392 31752 422.361C32256 460.8 32760 460.8 33264 412.839C33768 364.408 34272 269.192 34776 211.239C35280 153.992 35784 134.008 36036 124.839L36288 115.2V576H36036C35784 576 35280 576 34776 576C34272 576 33768 576 33264 576C32760 576 32256 576 31752 576C31248 576 30744 576 30240 576C29736 576 29232 576 28728 576C28224 576 27720 576 27216 576C26712 576 26208 576 25704 576C25200 576 24696 576 24192 576C23688 576 23184 576 22680 576C22176 576 21672 576 21168 576C20664 576 20160 576 19656 576C19152 576 18648 576 18144 576C17640 576 17136 576 16632 576C16128 576 15624 576 15120 576C14616 576 14112 576 13608 576C13104 576 12600 576 12096 576C11592 576 11088 576 10584 576C10080 576 9576 576 9072 576C8568 576 8064 576 7560 576C7056 576 6552 576 6048 576C5544 576 5040 576 4536 576C4032 576 3528 576 3024 576C2520 576 2016 576 1512 576C1008 576 504 576 252 576H0V0Z" fill="url(#paint0_linear_185_695)"/>
<path opacity="0.9" d="M0 460.8L252 393.561C504 326.792 1008 191.608 1512 201.6C2016 211.592 2520 364.408 3024 355.239C3528 345.6 4032 172.8 4536 115.2C5040 57.5999 5544 115.2 6048 153.639C6552 191.608 7056 211.592 7560 240.039C8064 269.192 8568 306.808 9072 345.6C9576 384.392 10080 422.008 10584 432C11088 441.992 11592 422.008 12096 422.361C12600 422.008 13104 441.992 13608 384.039C14112 326.792 14616 191.608 15120 201.6C15624 211.592 16128 364.408 16632 374.4C17136 384.392 17640 249.208 18144 182.439C18648 115.2 19152 115.2 19656 124.839C20160 134.008 20664 153.992 21168 182.439C21672 211.592 22176 249.208 22680 288C23184 326.792 23688 364.408 24192 374.4C24696 384.392 25200 364.408 25704 297.639C26208 230.4 26712 115.2 27216 96.0391C27720 76.4081 28224 153.992 28728 191.961C29232 230.4 29736 230.4 30240 191.961C30744 153.992 31248 76.4081 31752 57.5999C32256 38.7918 32760 76.4081 33264 134.361C33768 191.608 34272 269.192 34776 288C35280 306.808 35784 269.192 36036 249.561L36288 230.4V576H36036C35784 576 35280 576 34776 576C34272 576 33768 576 33264 576C32760 576 32256 576 31752 576C31248 576 30744 576 30240 576C29736 576 29232 576 28728 576C28224 576 27720 576 27216 576C26712 576 26208 576 25704 576C25200 576 24696 576 24192 576C23688 576 23184 576 22680 576C22176 576 21672 576 21168 576C20664 576 20160 576 19656 576C19152 576 18648 576 18144 576C17640 576 17136 576 16632 576C16128 576 15624 576 15120 576C14616 576 14112 576 13608 576C13104 576 12600 576 12096 576C11592 576 11088 576 10584 576C10080 576 9576 576 9072 576C8568 576 8064 576 7560 576C7056 576 6552 576 6048 576C5544 576 5040 576 4536 576C4032 576 3528 576 3024 576C2520 576 2016 576 1512 576C1008 576 504 576 252 576H0V460.8Z" fill="url(#paint1_linear_185_695)"/>
<path opacity="0.8" d="M0 0L252 67.2392C504 134.008 1008 269.192 1512 335.961C2016 403.2 2520 403.2 3024 412.839C3528 422.008 4032 441.992 4536 374.4C5040 306.808 5544 153.992 6048 105.561C6552 57.6 7056 115.2 7560 134.361C8064 153.992 8568 134.008 9072 144C9576 153.992 10080 191.608 10584 249.561C11088 306.808 11592 384.392 12096 432C12600 479.608 13104 499.592 13608 489.6C14112 479.608 14616 441.992 15120 374.4C15624 306.808 16128 211.592 16632 182.439C17136 153.992 17640 191.608 18144 201.6C18648 211.592 19152 191.608 19656 191.961C20160 191.608 20664 211.592 21168 259.2C21672 306.808 22176 384.392 22680 393.561C23184 403.2 23688 345.6 24192 345.6C24696 345.6 25200 403.2 25704 441.639C26208 479.608 26712 499.592 27216 508.761C27720 518.4 28224 518.4 28728 489.6C29232 460.8 29736 403.2 30240 393.561C30744 384.392 31248 422.008 31752 403.2C32256 384.392 32760 306.808 33264 297.639C33768 288 34272 345.6 34776 345.6C35280 345.6 35784 288 36036 259.2L36288 230.4V576H36036C35784 576 35280 576 34776 576C34272 576 33768 576 33264 576C32760 576 32256 576 31752 576C31248 576 30744 576 30240 576C29736 576 29232 576 28728 576C28224 576 27720 576 27216 576C26712 576 26208 576 25704 576C25200 576 24696 576 24192 576C23688 576 23184 576 22680 576C22176 576 21672 576 21168 576C20664 576 20160 576 19656 576C19152 576 18648 576 18144 576C17640 576 17136 576 16632 576C16128 576 15624 576 15120 576C14616 576 14112 576 13608 576C13104 576 12600 576 12096 576C11592 576 11088 576 10584 576C10080 576 9576 576 9072 576C8568 576 8064 576 7560 576C7056 576 6552 576 6048 576C5544 576 5040 576 4536 576C4032 576 3528 576 3024 576C2520 576 2016 576 1512 576C1008 576 504 576 252 576H0V0Z" fill="url(#paint2_linear_185_695)"/>
<path opacity="0.7" d="M0 57.6001H252C504 57.6001 1008 57.6001 1512 124.839C2016 191.608 2520 326.792 3024 316.8C3528 306.808 4032 153.992 4536 144C5040 134.008 5544 269.192 6048 335.961C6552 403.2 7056 403.2 7560 403.2C8064 403.2 8568 403.2 9072 345.6C9576 288 10080 172.8 10584 124.839C11088 76.4083 11592 96.3919 12096 163.161C12600 230.4 13104 345.6 13608 345.6C14112 345.6 14616 230.4 15120 191.961C15624 153.992 16128 191.608 16632 259.2C17136 326.792 17640 422.008 18144 412.839C18648 403.2 19152 288 19656 220.761C20160 153.992 20664 134.008 21168 115.2C21672 96.3919 22176 76.4083 22680 67.2393C23184 57.6001 23688 57.6001 24192 67.2393C24696 76.4083 25200 96.3919 25704 134.361C26208 172.8 26712 230.4 27216 240.039C27720 249.208 28224 211.592 28728 220.761C29232 230.4 29736 288 30240 345.6C30744 403.2 31248 460.8 31752 412.839C32256 364.408 32760 211.592 33264 211.239C33768 211.592 34272 364.408 34776 422.361C35280 479.608 35784 441.992 36036 422.361L36288 403.2V576H36036C35784 576 35280 576 34776 576C34272 576 33768 576 33264 576C32760 576 32256 576 31752 576C31248 576 30744 576 30240 576C29736 576 29232 576 28728 576C28224 576 27720 576 27216 576C26712 576 26208 576 25704 576C25200 576 24696 576 24192 576C23688 576 23184 576 22680 576C22176 576 21672 576 21168 576C20664 576 20160 576 19656 576C19152 576 18648 576 18144 576C17640 576 17136 576 16632 576C16128 576 15624 576 15120 576C14616 576 14112 576 13608 576C13104 576 12600 576 12096 576C11592 576 11088 576 10584 576C10080 576 9576 576 9072 576C8568 576 8064 576 7560 576C7056 576 6552 576 6048 576C5544 576 5040 576 4536 576C4032 576 3528 576 3024 576C2520 576 2016 576 1512 576C1008 576 504 576 252 576H0V57.6001Z" fill="url(#paint3_linear_185_695)"/>
<defs>
<linearGradient id="paint0_linear_185_695" x1="0" y1="576" x2="0" y2="0" gradientUnits="userSpaceOnUse">
<stop stop-color="#000924"/>
<stop offset="1" stop-color="#000924"/>
</linearGradient>
<linearGradient id="paint1_linear_185_695" x1="0" y1="576" x2="0" y2="52.7158" gradientUnits="userSpaceOnUse">
<stop stop-color="#000924"/>
<stop offset="1" stop-color="#1E37A1"/>
</linearGradient>
<linearGradient id="paint2_linear_185_695" x1="0" y1="576" x2="0" y2="0" gradientUnits="userSpaceOnUse">
<stop stop-color="#000924"/>
<stop offset="1"/>
</linearGradient>
<linearGradient id="paint3_linear_185_695" x1="0" y1="576" x2="0" y2="57.6001" gradientUnits="userSpaceOnUse">
<stop stop-color="#000924"/>
<stop offset="1" stop-color="#000924"/>
</linearGradient>
</defs>
</svg>
