<svg width="1264" height="615" viewBox="0 0 1264 615" fill="none" xmlns="http://www.w3.org/2000/svg">
<path d="M61.579 227.997C49.2151 142.872 43.0332 100.309 66.9613 72.6545C90.8894 45 133.899 45 219.918 45H1066.59C1154.9 45 1199.06 45 1223.04 73.5347C1247.02 102.069 1239.41 145.568 1224.19 232.566L1188.51 436.566C1177.44 499.853 1171.91 531.496 1149.59 550.248C1127.28 569 1095.15 569 1030.91 569H249.547C183.53 569 150.521 569 127.982 549.498C105.442 529.995 100.697 497.329 91.2084 431.997L61.579 227.997Z" fill="url(#paint0_linear_103_2)"/>
<path d="M1221.94 272.369C1241.14 188.429 1250.74 146.459 1229.1 117.088C1207.46 87.7174 1164.56 84.4884 1078.76 78.0302L232.03 14.2973C143.93 7.66608 99.8806 4.35049 73.678 31.0047C47.4755 57.6588 51.5863 101.602 59.8079 189.487L79.0782 395.478C85.055 459.366 88.0433 491.31 108.789 511.667C129.534 532.024 161.556 534.434 225.599 539.254L1007.07 598.076C1072.89 603.029 1105.79 605.506 1129.83 587.766C1153.87 570.026 1161.23 537.834 1175.96 473.448L1221.94 272.369Z" fill="url(#paint1_linear_103_2)" fill-opacity="0.75"/>
<defs>
<linearGradient id="paint0_linear_103_2" x1="309.95" y1="188.046" x2="1210.57" y2="555.37" gradientUnits="userSpaceOnUse">
<stop stop-color="#1E37A1"/>
<stop offset="0.634711" stop-color="#599DA4" stop-opacity="0.922933"/>
<stop offset="1" stop-color="#6BBBA5" stop-opacity="0.9"/>
</linearGradient>
<linearGradient id="paint1_linear_103_2" x1="1362.95" y1="393.604" x2="63.9312" y2="475.735" gradientUnits="userSpaceOnUse">
<stop stop-color="#1E37A1"/>
<stop offset="0.38695" stop-color="#61A9A4" stop-opacity="0.913265"/>
<stop offset="0.86956" stop-color="#599DA4" stop-opacity="0.922933"/>
<stop offset="1" stop-color="#6BBBA5" stop-opacity="0.9"/>
</linearGradient>
</defs>
</svg>
